<svg version="1.1" width="1465.1" height="3885.5" style="background-color:white" xmlns="http://www.w3.org/2000/svg" xmlns:xlink="http://www.w3.org/1999/xlink"><rect width="100%" height="100%" fill="white"></rect>
<g id="DrawingFrame"><rect x="0.0" y="0.0" width="610.0" height="912.5" rx="0" ry="0" fill="white" stroke="black" stroke-width="1.5" stroke-opacity="0"></rect><text x="0.0" y="12.0" font-family="Arial" font-size="12" font-weight="bold" opacity="1.2"></text></g>
<g id="AWS-aws-generic"><rect x="10.0" y="37.5" width="590.0" height="865.0" rx="15" ry="15" fill="white" stroke="black" stroke-width="1.5" stroke-opacity="0.16666666666666663"></rect><text x="10.0" y="104.5" font-family="Arial" font-size="12" font-weight="bold" opacity="0.36666666666666664"><tspan x="291.0" dy="12">AWS</tspan></text></g>
<g id="VPC"><rect x="20.0" y="156.5" width="570.0" height="736.0" rx="15" ry="15" fill="white" stroke="black" stroke-width="1.5" stroke-opacity="0.2"></rect><text x="20.0" y="223.5" font-family="Arial" font-size="12" font-weight="bold" opacity="0.4"><tspan x="257.3" dy="12">VPC - 10.0.0.0/16</tspan></text></g>
<g id="VPC-Public"><rect x="30.0" y="254.5" width="550.0" height="315.5" rx="15" ry="15" fill="white" stroke="none" stroke-width="1.5" stroke-opacity="0.2333333333333333"></rect><text x="30.0" y="266.5" font-family="Arial" font-size="12" font-weight="bold" opacity="0.43333333333333335"></text></g>
<g id="PublicSubnet3"><rect x="40.0" y="264.5" width="170.0" height="282.5" rx="15" ry="15" fill="white" stroke="black" stroke-width="1.5" stroke-opacity="0.26666666666666666"></rect><text x="40.0" y="276.5" font-family="Arial" font-size="12" font-weight="bold" opacity="0.4666666666666667"><tspan x="78.05" dy="12">us-east-1a (Public</tspan><tspan x="100.75" dy="15.600000000000001">Subnet3)</tspan></text></g>
<g id="PublicSubnet3-lb"><rect x="50.0" y="314.0" width="150" height="113.0" rx="15" ry="15" fill="white" stroke="none" stroke-width="1.5" stroke-opacity="0.4"></rect><text x="50.0" y="326.0" font-family="Arial" font-size="12" font-weight="bold" opacity="0.6000000000000001"></text></g><g id="LoadBalancer"><image x="77.5" y="314.0" width="95" height="60" xlink:href="https://studio.infviz.io/svg/aws/Compute_ElasticLoadBalancing.svg"></image><text x="77.5" y="379.0" font-family="Arial" font-size="10"><tspan x="82.85" dy="10">Application Load</tspan><tspan x="103.85" dy="13.0">Balancer</tspan></text><title>HTTP - 80 
</title></g>
<g id="PublicSubnet3-node"><rect x="50.0" y="437.0" width="150" height="100.0" rx="15" ry="15" fill="white" stroke="none" stroke-width="1.5" stroke-opacity="0.4"></rect><text x="50.0" y="449.0" font-family="Arial" font-size="12" font-weight="bold" opacity="0.6000000000000001"></text></g><g id="NatGateway"><image x="77.5" y="437.0" width="95" height="60" xlink:href="https://studio.infviz.io/svg/aws/Compute_AmazonVPC_VPCNATgateway.svg"></image><text x="77.5" y="502.0" font-family="Arial" font-size="10"><tspan x="93.1" dy="10">Nat Gateway</tspan></text><title>No details</title></g>
<g id="PublicSubnet4"><rect x="220.0" y="264.5" width="170.0" height="172.5" rx="15" ry="15" fill="white" stroke="black" stroke-width="1.5" stroke-opacity="0.26666666666666666"></rect><text x="220.0" y="276.5" font-family="Arial" font-size="12" font-weight="bold" opacity="0.4666666666666667"><tspan x="258.05" dy="12">us-east-1b (Public</tspan><tspan x="280.75" dy="15.600000000000001">Subnet4)</tspan></text></g>
<g id="PublicSubnet4-lb"><rect x="230.0" y="314.0" width="150" height="113.0" rx="15" ry="15" fill="white" stroke="none" stroke-width="1.5" stroke-opacity="0.4"></rect><text x="230.0" y="326.0" font-family="Arial" font-size="12" font-weight="bold" opacity="0.6000000000000001"></text></g><g id="LoadBalancer"><image x="257.5" y="314.0" width="95" height="60" xlink:href="https://studio.infviz.io/svg/aws/Compute_ElasticLoadBalancing.svg"></image><text x="257.5" y="379.0" font-family="Arial" font-size="10"><tspan x="262.85" dy="10">Application Load</tspan><tspan x="283.85" dy="13.0">Balancer</tspan></text><title>HTTP - 80 
</title></g>
<g id="PublicSubnet5"><rect x="400.0" y="264.5" width="170.0" height="295.5" rx="15" ry="15" fill="white" stroke="black" stroke-width="1.5" stroke-opacity="0.26666666666666666"></rect><text x="400.0" y="276.5" font-family="Arial" font-size="12" font-weight="bold" opacity="0.4666666666666667"><tspan x="438.65" dy="12">us-east-1c (Public</tspan><tspan x="460.75" dy="15.600000000000001">Subnet5)</tspan></text></g>
<g id="PublicSubnet5-lb"><rect x="410.0" y="314.0" width="150" height="113.0" rx="15" ry="15" fill="white" stroke="none" stroke-width="1.5" stroke-opacity="0.4"></rect><text x="410.0" y="326.0" font-family="Arial" font-size="12" font-weight="bold" opacity="0.6000000000000001"></text></g><g id="LoadBalancer"><image x="437.5" y="314.0" width="95" height="60" xlink:href="https://studio.infviz.io/svg/aws/Compute_ElasticLoadBalancing.svg"></image><text x="437.5" y="379.0" font-family="Arial" font-size="10"><tspan x="442.85" dy="10">Application Load</tspan><tspan x="463.85" dy="13.0">Balancer</tspan></text><title>HTTP - 80 
</title></g>
<g id="PublicSubnet5-node"><rect x="410.0" y="437.0" width="150" height="113.0" rx="15" ry="15" fill="white" stroke="none" stroke-width="1.5" stroke-opacity="0.4"></rect><text x="410.0" y="449.0" font-family="Arial" font-size="12" font-weight="bold" opacity="0.6000000000000001"></text></g><g id="PublicInstance"><image x="437.5" y="437.0" width="95" height="60" xlink:href="https://studio.infviz.io/svg/aws/Compute_AmazonEC2.svg"></image><text x="437.5" y="502.0" font-family="Arial" font-size="10"><tspan x="442.85" dy="10">cloud-101-public-</tspan><tspan x="465.6" dy="13.0">instance</tspan></text><title>InstanceType : t2.small 
</title></g>
<g id="VPC-Private"><rect x="30.0" y="580.0" width="550.0" height="302.5" rx="15" ry="15" fill="white" stroke="none" stroke-width="1.5" stroke-opacity="0.2333333333333333"></rect><text x="30.0" y="592.0" font-family="Arial" font-size="12" font-weight="bold" opacity="0.43333333333333335"></text></g>
<g id="PrivateSubnet0"><rect x="40.0" y="590.0" width="170.0" height="282.5" rx="15" ry="15" fill="white" stroke="black" stroke-width="1.5" stroke-opacity="0.26666666666666666"></rect><text x="40.0" y="602.0" font-family="Arial" font-size="12" font-weight="bold" opacity="0.4666666666666667"><tspan x="75.9" dy="12">us-east-1c (Private</tspan><tspan x="100.75" dy="15.600000000000001">Subnet0)</tspan></text></g>
<g id="PrivateSubnet0-node"><rect x="50.0" y="639.5" width="150" height="113.0" rx="15" ry="15" fill="white" stroke="none" stroke-width="1.5" stroke-opacity="0.4"></rect><text x="50.0" y="651.5" font-family="Arial" font-size="12" font-weight="bold" opacity="0.6000000000000001"></text></g><g id="AutoScalingGroup"><image x="77.5" y="639.5" width="95" height="60" xlink:href="https://studio.infviz.io/svg/aws/Compute_AmazonEC2_AutoScaling.svg"></image><text x="77.5" y="704.5" font-family="Arial" font-size="10"><tspan x="74.95" dy="10">Auto Scaling Group</tspan></text><title>MinSize : 1 
MaxSize : 8 
</title></g>
<g id="PrivateSubnet0-data"><rect x="50.0" y="762.5" width="150" height="100.0" rx="15" ry="15" fill="white" stroke="none" stroke-width="1.5" stroke-opacity="0.4"></rect><text x="50.0" y="774.5" font-family="Arial" font-size="12" font-weight="bold" opacity="0.6000000000000001"></text></g><g id="RDSDBInstance"><image x="77.5" y="762.5" width="95" height="60" xlink:href="https://studio.infviz.io/svg/aws/Database_AmazonRDS.svg"></image><text x="77.5" y="827.5" font-family="Arial" font-size="10"><tspan x="84.6" dy="10">RDSDBInstance</tspan></text><title>DBInstanceClass : db.t3.small 
Engine : MySQL 
EngineVersion : 5.7.22 
</title></g>
<g id="PrivateSubnet1"><rect x="220.0" y="590.0" width="170.0" height="282.5" rx="15" ry="15" fill="white" stroke="black" stroke-width="1.5" stroke-opacity="0.26666666666666666"></rect><text x="220.0" y="602.0" font-family="Arial" font-size="12" font-weight="bold" opacity="0.4666666666666667"><tspan x="255.3" dy="12">us-east-1a (Private</tspan><tspan x="280.75" dy="15.600000000000001">Subnet1)</tspan></text></g>
<g id="PrivateSubnet1-node"><rect x="230.0" y="639.5" width="150" height="113.0" rx="15" ry="15" fill="white" stroke="none" stroke-width="1.5" stroke-opacity="0.4"></rect><text x="230.0" y="651.5" font-family="Arial" font-size="12" font-weight="bold" opacity="0.6000000000000001"></text></g><g id="AutoScalingGroup"><image x="257.5" y="639.5" width="95" height="60" xlink:href="https://studio.infviz.io/svg/aws/Compute_AmazonEC2_AutoScaling.svg"></image><text x="257.5" y="704.5" font-family="Arial" font-size="10"><tspan x="254.95" dy="10">Auto Scaling Group</tspan></text><title>MinSize : 1 
MaxSize : 8 
</title></g>
<g id="PrivateSubnet1-data"><rect x="230.0" y="762.5" width="150" height="100.0" rx="15" ry="15" fill="white" stroke="none" stroke-width="1.5" stroke-opacity="0.4"></rect><text x="230.0" y="774.5" font-family="Arial" font-size="12" font-weight="bold" opacity="0.6000000000000001"></text></g><g id="RDSDBInstance"><image x="257.5" y="762.5" width="95" height="60" xlink:href="https://studio.infviz.io/svg/aws/Database_AmazonRDS.svg"></image><text x="257.5" y="827.5" font-family="Arial" font-size="10"><tspan x="264.6" dy="10">RDSDBInstance</tspan></text><title>DBInstanceClass : db.t3.small 
Engine : MySQL 
EngineVersion : 5.7.22 
</title></g>
<g id="PrivateSubnet2"><rect x="400.0" y="590.0" width="170.0" height="282.5" rx="15" ry="15" fill="white" stroke="black" stroke-width="1.5" stroke-opacity="0.26666666666666666"></rect><text x="400.0" y="602.0" font-family="Arial" font-size="12" font-weight="bold" opacity="0.4666666666666667"><tspan x="435.9" dy="12">us-east-1c (Private</tspan><tspan x="460.75" dy="15.600000000000001">Subnet2)</tspan></text></g>
<g id="PrivateSubnet2-node"><rect x="410.0" y="639.5" width="150" height="113.0" rx="15" ry="15" fill="white" stroke="none" stroke-width="1.5" stroke-opacity="0.4"></rect><text x="410.0" y="651.5" font-family="Arial" font-size="12" font-weight="bold" opacity="0.6000000000000001"></text></g><g id="AutoScalingGroup"><image x="437.5" y="639.5" width="95" height="60" xlink:href="https://studio.infviz.io/svg/aws/Compute_AmazonEC2_AutoScaling.svg"></image><text x="437.5" y="704.5" font-family="Arial" font-size="10"><tspan x="434.95" dy="10">Auto Scaling Group</tspan></text><title>MinSize : 1 
MaxSize : 8 
</title></g>
<g id="PrivateSubnet2-data"><rect x="410.0" y="762.5" width="150" height="100.0" rx="15" ry="15" fill="white" stroke="none" stroke-width="1.5" stroke-opacity="0.4"></rect><text x="410.0" y="774.5" font-family="Arial" font-size="12" font-weight="bold" opacity="0.6000000000000001"></text></g><g id="RDSDBInstance"><image x="437.5" y="762.5" width="95" height="60" xlink:href="https://studio.infviz.io/svg/aws/Database_AmazonRDS.svg"></image><text x="437.5" y="827.5" font-family="Arial" font-size="10"><tspan x="444.6" dy="10">RDSDBInstance</tspan></text><title>DBInstanceClass : db.t3.small 
Engine : MySQL 
EngineVersion : 5.7.22 
</title></g><g id="IGW"><image x="285.0" y="141.5" width="50" height="50" xlink:href="https://studio.infviz.io/svg/aws/Compute_AmazonVPC_Internetgateway.svg"></image><text x="285.0" y="196.5" font-family="Arial" font-size="10"><tspan x="298.25" dy="10">IGW</tspan></text></g><g id=""><image x="15.0" y="25.0" width="50" height="50" xlink:href="https://studio.infviz.io/svg/aws/General_AWScloud.svg"></image><text x="15.0" y="80.0" font-family="Arial" font-size="10"></text></g>
<defs><marker id="arrow-blue" markerWidth="10" markerHeight="10" refX="6" refY="3" orient="auto" markerUnits="strokeWidth"><path d="M0,0 L0,6 L9,3 z" fill="blue" opacity="0.5"></path></marker></defs>
<path d="M125.0 407.0 V430.25 H125.0 L125.0 639.5" stroke="blue" fill="none" stroke-opacity="0.3" marker-end="url(#arrow-blue)"></path>
<path d="M125.0 407.0 V430.25 H305.0 L305.0 639.5" stroke="blue" fill="none" stroke-opacity="0.3" marker-end="url(#arrow-blue)"></path>
<path d="M125.0 407.0 V430.25 H485.0 L485.0 639.5" stroke="blue" fill="none" stroke-opacity="0.3" marker-end="url(#arrow-blue)"></path>
<path d="M305.0 407.0 V430.25 H125.0 L125.0 639.5" stroke="blue" fill="none" stroke-opacity="0.3" marker-end="url(#arrow-blue)"></path>
<path d="M305.0 407.0 V430.25 H305.0 L305.0 639.5" stroke="blue" fill="none" stroke-opacity="0.3" marker-end="url(#arrow-blue)"></path>
<path d="M305.0 407.0 V430.25 H485.0 L485.0 639.5" stroke="blue" fill="none" stroke-opacity="0.3" marker-end="url(#arrow-blue)"></path>
<path d="M485.0 407.0 V430.25 H125.0 L125.0 639.5" stroke="blue" fill="none" stroke-opacity="0.3" marker-end="url(#arrow-blue)"></path>
<path d="M485.0 407.0 V430.25 H305.0 L305.0 639.5" stroke="blue" fill="none" stroke-opacity="0.3" marker-end="url(#arrow-blue)"></path>
<path d="M485.0 407.0 V430.25 H485.0 L485.0 639.5" stroke="blue" fill="none" stroke-opacity="0.3" marker-end="url(#arrow-blue)"></path></svg>